<svg id="Layer_1" xmlns="http://www.w3.org/2000/svg" viewBox="0 0 44 44"><style>.st0{display:none}.st0,.st1{fill:#fff}</style><path class="st0" d="M26.5 31.1h-9.1c-2.5 0-4.5-2-4.5-4.5v-9.1c0-2.5 2-4.5 4.5-4.5h9.1c2.5 0 4.5 2 4.5 4.5v9.1c.1 2.5-1.9 4.5-4.5 4.5z"/><path class="st1" d="M26.5 12h-9.1c-3 0-5.5 2.5-5.5 5.5v9.1c0 3 2.5 5.5 5.5 5.5h9.1c3 0 5.5-2.5 5.5-5.5v-9.1c0-3-2.5-5.5-5.5-5.5zm3.7 14.5c0 2-1.6 3.6-3.6 3.6h-9.1c-2 0-3.6-1.6-3.6-3.6v-9.1c0-2 1.6-3.6 3.6-3.6h9.1c2 0 3.6 1.6 3.6 3.6v9.1zm-8.2-10c-3 0-5.5 2.5-5.5 5.5s2.5 5.5 5.5 5.5 5.5-2.5 5.5-5.5-2.5-5.5-5.5-5.5zm0 9.1c-2 0-3.6-1.6-3.6-3.6s1.6-3.6 3.6-3.6 3.6 1.6 3.6 3.6-1.6 3.6-3.6 3.6zm5.5-10c-.5 0-.9.4-.9.9s.4.9.9.9.9-.4.9-.9-.4-.9-.9-.9z"/></svg>