<svg id="Layer_1" xmlns="http://www.w3.org/2000/svg" viewBox="0 0 44 44"><style>.st0{fill:#fff}</style><path class="st0" d="M28.6 22.8c.2-.4.9-1.5 1.5-2.2 1.6-2.3 1.8-2.9 1.8-3.1 0-.2-.2-.5-.5-.5h-3.7c-.2 0-.4.2-.4.4-.2 1.1-2.9 4.4-3.3 4.6-.2 0-.4-.5-.4-1.3v-3.4c0-.3 0-.6-.2-.7-.3-.3-.7-.3-1.8-.3-2.1 0-2.9.6-2.9 1.3 0 .2.2.4.4.4 0 0 .5.3.5 2.1 0 .5 0 1.7-.1 2-1.3-.3-2.7-2.9-3.4-4.8-.1-.2-.3-.3-.5-.3h-3.3c-.1 0-.3.1-.3.2v.2c.5 2.5 5.7 10.3 9.1 10.3h1.7c.9 0 .9-.9 1-1.6 0-.6.1-.9.3-.9.6 0 1.6.9 2.2 1.5.7.6 1.1 1 1.5 1h2.1c1.1 0 2.1 0 2.1-.8 0-.3-.3-.6-1.8-2.5-.7-.5-1.3-1.3-1.6-1.6zm-5-5.4v.2-.4.2z"/><path class="st0" d="M28.6 22.8c.2-.4.9-1.5 1.5-2.2 1.6-2.3 1.8-2.9 1.8-3.1 0-.2-.2-.5-.5-.5h-3.7c-.2 0-.4.2-.4.4-.2 1.1-2.9 4.4-3.3 4.6-.2 0-.4-.5-.4-1.3v-3.4c0-.3 0-.6-.2-.7-.3-.3-.7-.3-1.8-.3-2.1 0-2.9.6-2.9 1.3 0 .2.2.4.4.4 0 0 .5.3.5 2.1 0 .5 0 1.7-.1 2-1.3-.3-2.7-2.9-3.4-4.8-.1-.2-.3-.3-.5-.3h-3.3c-.1 0-.3.1-.3.2v.2c.5 2.5 5.7 10.3 9.1 10.3h1.7c.9 0 .9-.9 1-1.6 0-.6.1-.9.3-.9.6 0 1.6.9 2.2 1.5.7.6 1.1 1 1.5 1h2.1c1.1 0 2.1 0 2.1-.8 0-.3-.3-.6-1.8-2.5-.7-.5-1.3-1.3-1.6-1.6z"/></svg>