<svg id="Слой_1" xmlns="http://www.w3.org/2000/svg" viewBox="0 0 162 48"><style>.st0{fill:#fff}</style><path d="M156 48H6c-3.3 0-6-2.7-6-6V6c0-3.3 2.7-6 6-6h150c3.3 0 6 2.7 6 6v36c0 3.3-2.7 6-6 6z"/><path class="st0" d="M78.2 13.1s0-1.3 1.3-1.3c1.2 0 1.1 1.3 1.1 1.3v3.4h1.3v-3.4s.1-2.4-2-2.4c-1.3 0-1.8 1-1.8 1l-.1-.9h-1.1l.1 1.6v4.1h1.3v-3.4zm56.8 0s0-1.3 1.3-1.3c1.2 0 1.1 1.3 1.1 1.3v3.4h1.3v-3.4s.1-2.4-2-2.4c-1.3 0-1.7 1-1.7 1V8.3h-1.3v8.3h1.3v-3.5zM85.8 38.4c6.8 0 6.8-12 .4-12-2.9 0-4 2.2-4 2.2l-.1-1.9h-2.3l.1 2.6v13.6h2.6v-6.1s.8 1.6 3.3 1.6zm-.5-9.9c4 0 4 8-.1 8-2.7 0-2.8-2.8-2.8-2.8v-2.1c.1-.1.1-3.1 2.9-3.1zM65.9 13.7c0-3.9-5.5-3.9-5.5.1 0 3.9 5.5 3.8 5.5-.1zm-1.3 0c0 2.8-2.9 2.8-2.9.1 0-2.8 2.9-2.8 2.9-.1zm28.1 0c0-3.9-5.5-3.9-5.5.1 0 3.9 5.5 3.8 5.5-.1zm-1.3 0c0 2.8-2.9 2.8-2.9.1 0-2.8 2.9-2.8 2.9-.1zm28.5-.6s0-1.3 1.3-1.3c1.2 0 1.1 1.3 1.1 1.3v3.4h1.3v-3.4s.1-2.4-2-2.4c-1.3 0-1.8 1-1.8 1l-.1-.9h-1.1l.1 1.6v4.1h1.3v-3.4zm-80.4 5.2s-2-3.1-6.1-3.1c-2.3 0-4.2 1.4-5.4 1.4-1.4 0-2.8-1.3-5.1-1.3-4.5 0-8.2 4.3-7.5 10.7.7 5.8 4.8 12.4 7.9 12.4 1.9 0 2.8-1.3 5.1-1.3s3 1.2 5 1.2c3.4 0 6.2-6.1 6.8-8.1-4.6-1.8-5.8-8.7-.7-11.9zM33.9 7.8c-3.3.2-6.5 3.5-6.1 7.1 3.6.1 6.5-3.5 6.1-7.1zm30.5 30.4l-5.2-16H56l-5.2 16h2.6l1.4-4.7H60l1.4 4.7h3zm-4.7-6.7h-4.3l2.1-7 2.2 7zm12.8 6.9c6.8 0 6.8-12 .4-12-2.9 0-4 2.2-4 2.2l-.1-1.9h-2.3l.1 2.8v13.4h2.6v-6.1s.8 1.6 3.3 1.6zm-.5-9.9c4.1 0 4.1 8-.1 8-2.7 0-2.8-2.8-2.8-2.8v-2.1c.1-.1.2-3.1 2.9-3.1zm27.9 9.9c3.3 0 5.8-1.6 5.8-4.7 0-2.5-1.8-3.8-4-4.7-1.4-.6-3.1-1.2-3.1-2.8 0-1.4 1.3-2.1 2.8-2.1 1.7 0 3.1.7 3.1.7l.7-2s-1.3-.8-3.7-.8c-2.9 0-5.4 1.7-5.4 4.5 0 2 1.4 3.5 4.2 4.6 1.6.5 2.9 1.3 2.9 2.9s-1.3 2.4-3.1 2.4c-2.2 0-3.7-1-3.7-1l-.6 2.1c0-.1 1.3.9 4.1.9zm8.9-4c0 2.6.9 4 3.2 4 1.3 0 2-.3 2-.3l-.1-1.9s-.5.1-1.1.1c-1 0-1.5-.7-1.5-2.2v-5.6h2.8v-1.9h-2.8v-2.9l-2.5.8v2.1h-1.7v1.9h1.7v5.9zm18.1-2c0-8-11.3-8-11.3.2 0 7.9 11.3 7.8 11.3-.2zm-2.7 0c0 5.5-6.1 5.6-6.1.1.1-5.5 6.1-5.6 6.1-.1zm7.5-.6s.1-3 2.7-3c.4 0 .8.1.8.1v-2.4s-.4-.1-.6-.1c-2.5 0-3.2 2.6-3.2 2.6l-.1-2.3H129l.1 2.5v9.1h2.6v-6.5zm10.4 6.6c2.2 0 3.8-.7 3.8-.7l-.4-1.8s-1.1.5-3.1.5c-3.8 0-3.6-3.4-3.6-3.4h7.7c.4-3.6-1.1-6.6-4.7-6.6-3.9 0-5.4 3.4-5.4 6.1 0 3.2 1.8 5.9 5.7 5.9zm-3.2-7.2c0-.6.6-3.1 2.8-3.1 2.7 0 2.5 3.1 2.5 3.1h-5.3zm-80-18.8c0-2.5-1.6-3.8-4.3-3.8-1.2 0-2.2.2-2.2.2v7.7s1.1.1 1.8.1c3 0 4.7-1.4 4.7-4.2zm-1.3.1c0 2-1 3.1-3 3.1-.5 0-.9-.1-.9-.1V9.7s.6-.1 1-.1c1.9 0 2.9 1 2.9 2.9zm17.7-1.7h-1.2L73 15.3l-1.2-4.5h-1l-1.3 4.5-1-4.5h-1.3l1.7 5.7h1.2l1.2-4.2 1.1 4.2h1.2l1.7-5.7zm8.8 5.7h1.3V8.3h-1.3v8.2zM94.2 15c0 1.9 2.5 2.2 3.4.9l.1.7h1.1l-.1-1.1v-2.4c0-1.6-.7-2.3-2.2-2.3-1.2 0-1.9.5-1.9.5l.2.8s.5-.4 1.5-.4c.8 0 1.1.4 1.1 1.3-1.6-.2-3.2.4-3.2 2zm1.2-.1c0-1.4 2.1-1.1 2.1-1.1v.8c0 1.3-2.1 1.6-2.1.3zm7.5 1.8c1.4 0 1.9-1 1.9-1l.1.9h1.1s-.1-.8-.1-1.6V8.3h-1.3v3.2s-.4-.8-1.6-.8c-3.2 0-3.3 6-.1 6zm.5-5c1.3 0 1.3 1.4 1.3 1.4v1s0 1.5-1.4 1.5c-1.9 0-2-3.9.1-3.9zm13.3 2c0-3.9-5.5-3.9-5.5.1 0 3.9 5.5 3.8 5.5-.1zm-1.3 0c0 2.8-2.9 2.8-2.9.1 0-2.8 2.9-2.8 2.9-.1zm13.9 1c0 1.2.5 2 1.6 2 .7 0 1-.2 1-.2l-.1-1s-.2.1-.5.1c-.5 0-.7-.3-.7-1v-2.8h1.4v-1h-1.4V9.5l-1.3.4v1h-.8v1h.8v2.8zm14 1.9c1.2 0 1.9-.3 1.9-.3l-.2-.9s-.5.2-1.6.2c-1.9 0-1.8-1.6-1.8-1.6h3.8c.3-1.4-.4-3.3-2.3-3.3-1.7 0-2.7 1.5-2.7 3.1 0 1.4.8 2.8 2.9 2.8zm-1.7-3.5s.1-1.5 1.4-1.5c1.4 0 1.3 1.5 1.3 1.5h-2.7z"/></svg>