<svg id="Слой_1" xmlns="http://www.w3.org/2000/svg" viewBox="0 0 199.6 57.2"><style>.st0{fill:#e6ff00}.st1{fill:#fff}</style><path class="st0" d="M25.3 14.6c-2.8 0-5.4 1.2-7.2 3-2.3 2.3-3 4.8-3 8 0 4.5-1.2 8.2-4.4 11.5-2.8 2.7-6.6 4.3-10.7 4.4v-4.8c2.8 0 5.4-1.2 7.2-3 2.3-2.3 3-4.8 3-8 0-4.5 1.2-8.2 4.4-11.4 2.7-2.7 6.5-4.4 10.6-4.4v4.7h.1z"/><path class="st0" d="M0 46.3c1.6 0 3.2-.2 4.8-.6 3.7-.9 7.1-2.8 9.7-5.4 3.7-3.7 6-8.8 6-14.4 0-3.5 1.8-5.9 4.8-5.9v5.9c0 7-2.8 13.3-7.4 17.9C13.3 48.3 7 51.2 0 51.2v-4.9zM25.3 4.8c-1.6 0-3.2.2-4.8.6-3.7.9-7.1 2.8-9.7 5.4-3.7 3.7-6 8.8-6 14.4 0 3.5-1.8 5.9-4.8 5.9v-5.9c0-7 2.8-13.3 7.4-17.9S18.3 0 25.3 0v4.8z"/><path class="st1" d="M54.3 28.5c2.7 0 5 1 6.9 3.1 1.9 2.1 2.9 4.6 2.9 7.5 0 3-1 5.5-2.9 7.5-1.9 2.1-4.2 3.1-6.9 3.1-2.8 0-5-1-6.5-2.9v2.4h-5.2V21h5.2v10.4c1.5-2 3.7-2.9 6.5-2.9zm-5 14.7c1 1.1 2.4 1.6 4 1.6s2.9-.5 4-1.6 1.6-2.4 1.6-4.1c0-1.7-.5-3-1.6-4.1-1.1-1.1-2.4-1.6-4-1.6s-2.9.5-4 1.6c-1 1.1-1.6 2.4-1.6 4.1.1 1.7.6 3 1.6 4.1zM81.1 29h5.2v20.1h-5.2v-2.3c-1.3 1.9-3.3 2.8-6 2.8-2.2 0-4-.7-5.5-2.2-1.4-1.5-2.2-3.5-2.2-6.1V29h5.2v11.7c0 1.3.4 2.4 1.1 3.1.7.7 1.7 1.1 2.9 1.1 1.3 0 2.4-.4 3.2-1.2.8-.8 1.2-2.1 1.2-3.7V29zm23 0h5.6l-7.3 20.1c-1 2.9-2.4 5-4.2 6.3-1.7 1.3-3.9 1.9-6.5 1.8v-4.8c1.4 0 2.5-.3 3.3-.9.8-.6 1.5-1.6 2-3L88.8 29h5.7l5.2 13.5 4.4-13.5zm22.9 5.7c0 .5.4 1 1.1 1.3.7.3 1.6.6 2.6.9 1 .3 2 .6 3.1 1 1 .4 1.9 1 2.6 2 .7.9 1.1 2.1 1.1 3.4 0 2.1-.8 3.7-2.3 4.8-1.5 1.1-3.5 1.7-5.8 1.7-4.1 0-6.9-1.6-8.5-4.8l4.5-2.5c.6 1.7 1.9 2.6 3.9 2.6 1.9 0 2.8-.6 2.8-1.7 0-.5-.4-1-1.1-1.3-.7-.3-1.6-.6-2.6-.9-1-.3-2-.6-3.1-1-1-.4-1.9-1-2.6-1.9-.7-.9-1.1-2-1.1-3.3 0-2 .7-3.5 2.2-4.7 1.5-1.1 3.3-1.7 5.5-1.7 1.6 0 3.1.4 4.5 1.1 1.3.7 2.4 1.8 3.2 3.2l-4.4 2.4c-.6-1.4-1.7-2.1-3.2-2.1-.7 0-1.2.1-1.7.4-.5.2-.7.6-.7 1.1zm24.6-.7h-4.5v8.4c0 .7.2 1.2.5 1.5.3.3.9.5 1.5.5h2.5v4.7c-3.6.4-6.1.1-7.5-1-1.5-1.1-2.2-3-2.2-5.8V34h-3.5v-5h3.5v-4l5.2-1.6V29h4.5v5zm7.5 7.2c.7 2.5 2.6 3.8 5.7 3.8 2 0 3.5-.7 4.5-2l4.2 2.4c-2 2.9-4.9 4.3-8.8 4.3-3.3 0-6-1-8-3s-3-4.5-3-7.6c0-3 1-5.6 3-7.6s4.5-3 7.6-3c3 0 5.4 1 7.3 3.1 1.9 2 2.9 4.6 2.9 7.6 0 .7-.1 1.4-.2 2.1h-15.2zm-.1-4h10.3c-.3-1.4-.9-2.4-1.8-3.1-.9-.7-2-1-3.2-1-1.4 0-2.5.4-3.5 1.1-.9.7-1.5 1.7-1.8 3zm30.8-8.7c2.7 0 5 1 6.9 3.1 1.9 2.1 2.9 4.6 2.9 7.5 0 3-1 5.5-2.9 7.5-1.9 2.1-4.2 3.1-6.9 3.1-2.8 0-5-1-6.5-2.9v10.4h-5.2V29h5.2v2.4c1.5-2 3.7-2.9 6.5-2.9zm-5 14.7c1 1.1 2.4 1.6 4 1.6s2.9-.5 4-1.6 1.6-2.4 1.6-4.1c0-1.7-.5-3-1.6-4.1-1.1-1.1-2.4-1.6-4-1.6s-2.9.5-4 1.6c-1 1.1-1.6 2.4-1.6 4.1.1 1.7.6 3 1.6 4.1z"/></svg>