<svg id="artwork" xmlns="http://www.w3.org/2000/svg" viewBox="0 0 162 48"><style>.st0{display:none}.st1{display:inline}.st2{fill:#a6a6a6}.st3{stroke:#fff;stroke-width:.2;stroke-miterlimit:10}.st3,.st4{fill:#fff}.st5{fill:url(#SVGID_1_)}.st6{fill:url(#SVGID_2_)}.st7{fill:url(#SVGID_3_)}.st8{fill:url(#SVGID_4_)}.st10,.st11,.st9{enable-background:new}.st9{opacity:.2}.st10{opacity:.12}.st11{opacity:.25;fill:#fff}</style><path d="M156 48H6c-3.3 0-6-2.7-6-6V6c0-3.3 2.7-6 6-6h150c3.3 0 6 2.7 6 6v36c0 3.3-2.7 6-6 6z"/><g class="st0"><g class="st1"><path class="st2" d="M156 1c2.8 0 5 2.3 5 5v36c0 2.8-2.3 5-5 5H6c-2.8 0-5-2.3-5-5V6c0-2.8 2.3-5 5-5h150m0-1H6C2.7 0 0 2.7 0 6v36c0 3.3 2.7 6 6 6h150c3.3 0 6-2.7 6-6V6c0-3.3-2.7-6-6-6z"/></g></g><path class="st3" d="M56.9 12.3c0 1-.3 1.8-.9 2.4-.7.7-1.6 1.1-2.6 1.1s-1.9-.4-2.6-1.1c-.8-.7-1.2-1.6-1.2-2.7s.4-2 1.1-2.7c.7-.7 1.6-1.1 2.6-1.1.5 0 1 .1 1.5.3.5.2.9.5 1.2.8l-.7.7c-.5-.6-1.1-.9-2-.9-.8 0-1.4.3-2 .8-.6.5-.8 1.2-.8 2.1 0 .9.3 1.5.8 2.1.6.5 1.2.8 2 .8s1.5-.3 2-.8c.3-.3.5-.8.6-1.5h-2.6v-.9h3.5c.1.2.1.4.1.6zm5.5-3h-3.3v2.3h3v.9h-3v2.3h3.3v.9h-4.2V8.4h4.2v.9zm3.9 6.3h-.9V9.3h-2v-.9h4.9v.9h-2v6.3zm5.6 0V8.4h.9v7.2h-.9zm5.1 0h-1V9.3h-2v-.9h5v.9h-2v6.3zm11.3-.9c-.7.7-1.6 1.1-2.6 1.1-1.1 0-1.9-.4-2.6-1.1-.8-.8-1.1-1.6-1.1-2.7s.4-1.9 1.1-2.7c.7-.7 1.6-1.1 2.6-1.1s1.9.4 2.6 1.1c.7.7 1.1 1.6 1.1 2.7s-.4 1.9-1.1 2.7zm-4.6-.6c.5.5 1.2.8 2 .8s1.4-.3 2-.8c.5-.5.8-1.2.8-2.1s-.3-1.5-.8-2.1c-.5-.5-1.2-.8-2-.8s-1.4.3-2 .8c-.5.5-.8 1.2-.8 2.1s.3 1.5.8 2.1zm7 1.5V8.4h1.1l3.5 5.6V8.4h.9v7.2h-1l-3.7-5.9v5.9h-.8z"/><path class="st4" d="M81.8 26.1c-2.8 0-5.1 2.1-5.1 5.1 0 2.9 2.3 5.1 5.1 5.1s5.1-2.2 5.1-5.1c0-3-2.3-5.1-5.1-5.1zm0 8.2c-1.5 0-2.9-1.3-2.9-3.1s1.3-3.1 2.9-3.1 2.9 1.3 2.9 3.1c-.1 1.8-1.4 3.1-2.9 3.1zm-11.2-8.2c-2.8 0-5.1 2.1-5.1 5.1 0 2.9 2.3 5.1 5.1 5.1s5.1-2.2 5.1-5.1c0-3-2.3-5.1-5.1-5.1zm0 8.2c-1.5 0-2.9-1.3-2.9-3.1s1.3-3.1 2.9-3.1c1.5 0 2.9 1.3 2.9 3.1s-1.4 3.1-2.9 3.1zm-13.3-6.6v2.2h5.2c-.2 1.2-.6 2.1-1.2 2.7-.8.8-1.9 1.6-4 1.6-3.2 0-5.7-2.6-5.7-5.8s2.5-5.8 5.7-5.8c1.7 0 3 .7 3.9 1.5l1.5-1.5c-1.3-1.2-3-2.2-5.4-2.2-4.4 0-8 3.6-8 7.9 0 4.4 3.7 7.9 8 7.9 2.4 0 4.1-.8 5.5-2.2 1.4-1.4 1.9-3.4 1.9-5.1 0-.5 0-1-.1-1.4h-7.3zm54.4 1.6c-.4-1.1-1.7-3.2-4.4-3.2-2.6 0-4.8 2.1-4.8 5.1 0 2.9 2.2 5.1 5.1 5.1 2.3 0 3.7-1.4 4.3-2.3l-1.7-1.2c-.6.9-1.4 1.4-2.5 1.4s-2-.5-2.5-1.5l6.8-2.8-.3-.6zm-7 1.8c-.1-2 1.5-3 2.7-3 .9 0 1.6.4 1.9 1.1l-4.6 1.9zM99.2 36h2.2V21h-2.2v15zm-3.7-8.8c-.6-.6-1.5-1.1-2.8-1.1-2.6 0-4.9 2.2-4.9 5.1 0 2.9 2.3 5.1 4.9 5.1 1.2 0 2.2-.5 2.7-1.2h.1v.7c0 2-1 3-2.7 3-1.4 0-2.2-1-2.6-1.8l-2 .8c.6 1.4 2 3 4.5 3 2.6 0 4.9-1.5 4.9-5.3v-9.2h-2.1v.9zm-2.6 7.1c-1.5 0-2.8-1.3-2.8-3.1s1.3-3.1 2.8-3.1c1.5 0 2.7 1.3 2.7 3.1s-1.2 3.1-2.7 3.1zM122.2 21h-5.4v15h2.2v-5.7h3.1c2.5 0 4.9-1.8 4.9-4.7s-2.4-4.6-4.8-4.6zm0 7.2H119v-5.1h3.2c1.7 0 2.6 1.4 2.6 2.6 0 1.1-.9 2.5-2.6 2.5zm13.9-2.1c-1.6 0-3.3.7-4 2.3l2 .8c.4-.8 1.2-1.1 2-1.1 1.2 0 2.3.7 2.4 1.9v.2c-.4-.2-1.3-.6-2.3-.6-2.1 0-4.3 1.2-4.3 3.4 0 2 1.8 3.3 3.7 3.3 1.5 0 2.3-.7 2.9-1.5h.1V36h2.2v-5.8c-.2-2.6-2.2-4.1-4.7-4.1zm-.3 8.2c-.7 0-1.8-.4-1.8-1.3 0-1.2 1.3-1.6 2.4-1.6 1 0 1.4.2 2 .5-.1 1.4-1.3 2.4-2.6 2.4zm12.7-7.9l-2.6 6.5h-.1l-2.7-6.5h-2.4l4 9.1-2.3 5.1h2.3l6.2-14.1h-2.4zM128.3 36h2.2V21h-2.2v15z"/><linearGradient id="SVGID_1_" gradientUnits="userSpaceOnUse" x1="26.16" y1="179.548" x2="6.021" y2="159.41" gradientTransform="matrix(1 0 0 -1 0 190)"><stop offset="0" stop-color="#00a0ff"/><stop offset=".007" stop-color="#00a1ff"/><stop offset=".26" stop-color="#00beff"/><stop offset=".512" stop-color="#00d2ff"/><stop offset=".76" stop-color="#00dfff"/><stop offset="1" stop-color="#00e3ff"/></linearGradient><path class="st5" d="M12.5 9c-.3.4-.5 1-.5 1.7v26.5c0 .7.2 1.3.6 1.7l.1.1 14.9-14.9v-.3L12.5 9z"/><linearGradient id="SVGID_2_" gradientUnits="userSpaceOnUse" x1="40.601" y1="165.998" x2="11.565" y2="165.998" gradientTransform="matrix(1 0 0 -1 0 190)"><stop offset="0" stop-color="#ffe000"/><stop offset=".409" stop-color="#ffbd00"/><stop offset=".775" stop-color="orange"/><stop offset="1" stop-color="#ff9c00"/></linearGradient><path class="st6" d="M32.4 29.1l-5-5v-.3l5-5 .1.1 5.9 3.3c1.7 1 1.7 2.5 0 3.5L32.5 29l-.1.1z"/><linearGradient id="SVGID_3_" gradientUnits="userSpaceOnUse" x1="29.792" y1="163.245" x2="2.482" y2="135.935" gradientTransform="matrix(1 0 0 -1 0 190)"><stop offset="0" stop-color="#ff3a44"/><stop offset="1" stop-color="#c31162"/></linearGradient><path class="st7" d="M32.5 29.1l-5-5.1-15 15c.6.6 1.5.7 2.5.1l17.5-10"/><linearGradient id="SVGID_4_" gradientUnits="userSpaceOnUse" x1="8.757" y1="189.789" x2="20.952" y2="177.594" gradientTransform="matrix(1 0 0 -1 0 190)"><stop offset="0" stop-color="#32a071"/><stop offset=".069" stop-color="#2da771"/><stop offset=".476" stop-color="#15cf74"/><stop offset=".801" stop-color="#06e775"/><stop offset="1" stop-color="#00f076"/></linearGradient><path class="st8" d="M32.5 18.9L15 9c-1-.6-1.9-.5-2.5.1l15 15 5-5.2z"/><path class="st9" d="M32.4 29L15 38.9c-1 .6-1.8.5-2.4 0l-.1.1.1.1c.6.5 1.4.5 2.4 0l17.5-10-.1-.1z"/><path class="st10" d="M12.5 38.8c-.3-.4-.6-.9-.6-1.7v.2c0 .7.2 1.3.6 1.7v-.2zm25.9-13.2l-6 3.4.1.1 5.9-3.3c.8-.5 1.3-1.1 1.3-1.7-.1.5-.5 1-1.3 1.5z"/><path class="st11" d="M15 9.1l23.4 13.3c.8.4 1.2 1 1.3 1.6 0-.6-.4-1.3-1.3-1.7L15 9c-1.7-1-3-.2-3 1.8v.2c0-2 1.3-2.8 3-1.9z"/></svg>