<svg xmlns="http://www.w3.org/2000/svg" viewBox="0 0 437.517 455.463"><path d="M33.799 312.488c-15.596-11.216-17.833-27.312-18.325-38.957-1.607-38.039 26.509-60.666 38.725-33.129 7.919 17.848-.718 33.859-15.523 46.436m-20.275-36.301c-10.877-14.531-13.29-52.807-4.163-70.293 15.226-29.167 54.281-33.516 51.635-9.806-1.406 12.595-13.81 31.167-24.424 39.9m1.949-39.451c-10.436 10.313-27.656 17.501-34.781 6.176-10.328-16.414-4.547-59.113-.096-69.475 6.061-14.107 15.648-25.052 19.475-36.823 7.162-22.025 50.917 20.364 8.17 65.375m3.782-54.202c-5.65 17.611-20.727 25.434-29.365 21.21m85.915 245.639c22.108 38.096 74.302 68.601 117.6 84.3m-13.005-5.058c0 10.706.659 15.917 6.6 24.6m76.161-273.789c-21.514 28.073-46.03 119.521-16.657 192.748m24.6-181.801c-26.155-31.1-23.38-67.998-41.259-110.664m13.172 6.827c-14.84-4.95-21.852-13.899-27.93-25.49-14.895-28.399-6.469-67.552 18.615-55.325 19.584 9.546 39.43 66.213 85.149 125.878 25.878 33.773 33.987 71.658 40.763 99.848 6.502 27.047 24.338 157.026 54.375 213.554M318.608 101.459c3.538 5.136.739 15.118-2.812 18.428m-65.099-102.45c6.092 18.641 12.839 34.279 32.362 26.458" fill="none" stroke="#e6e9ff" stroke-width="5.669" stroke-linecap="round" stroke-linejoin="round" stroke-miterlimit="22.926"/></svg>