<svg id="Слой_1" xmlns="http://www.w3.org/2000/svg" viewBox="0 0 120 120"><style>.st0{fill:#dcff00}.st1{fill:#2e3350}</style><path class="st0" d="M49.5 46.5c6.2 0 11.3 5.1 11.3 11.3s-5.1 11.3-11.3 11.3c-6.3 0-11.3-5.1-11.3-11.3 0-6.3 5-11.3 11.3-11.3z"/><path class="st1" d="M82.6 39.5h-6.1v-2.1c0-.8-.6-1.4-1.4-1.4h-30c-.8 0-1.4.6-1.4 1.4v2.1h-6.1c-.8 0-1.4.6-1.4 1.4 0 6.3 1.6 12.2 4.6 16.7 2.9 4.4 6.9 7 11.1 7.2 1 1 2 1.9 3 2.5v6.2h-2.4c-2.8 0-5.2 2.3-5.2 5.2v2.4h-.1c-.8 0-1.4.6-1.4 1.4 0 .8.6 1.4 1.4 1.4h25.5c.8 0 1.4-.6 1.4-1.4s-.6-1.4-1.4-1.4h-.1v-2.4c0-2.8-2.3-5.2-5.2-5.2H65v-6.2c1.1-.6 2.1-1.5 3-2.5 4.2-.2 8.2-2.8 11.1-7.2 3-4.5 4.6-10.4 4.6-16.7.3-.7-.3-1.4-1.1-1.4zM43.1 56.1c-2.5-3.7-3.9-8.5-4.1-13.7h4.9c.5 6.4 2 12.3 4.4 17 .4.7.8 1.5 1.2 2.1-2.4-.9-4.6-2.7-6.4-5.4zM70 78.8v2.4H50.2v-2.4c0-1.3 1.1-2.4 2.4-2.4h15c1.3 0 2.4 1.1 2.4 2.4zm-7.5-5.2h-4.7v-5c.8.2 1.6.3 2.4.3s1.6-.1 2.4-.3l-.1 5zm.8-8.3c-.1 0-.1.1-.2.1-1 .5-2 .7-3 .7s-2-.3-3-.7c-.1 0-.1-.1-.2-.1-1.1-.6-2.2-1.5-3.2-2.6l-.2-.2c-1-1.2-1.9-2.6-2.8-4.4-2.6-5.1-4.1-11.9-4.2-19.2h27.2c-.2 7.3-1.7 14-4.2 19.2-.9 1.7-1.8 3.2-2.8 4.4l-.2.2c-1 1.1-2.1 2.1-3.2 2.6zm13.8-9.2c-1.8 2.7-3.9 4.5-6.3 5.4l1.2-2.1c2.3-4.7 3.8-10.6 4.4-17h4.9c-.3 5.1-1.8 10-4.2 13.7z"/></svg>