<svg id="Слой_1" xmlns="http://www.w3.org/2000/svg" viewBox="0 0 120 120"><style>.st0{fill:#dcff00}.st1{fill:#2e3350}</style><path class="st0" d="M77.3 67.4c6 0 10.9 4.9 10.9 10.9s-4.9 10.9-10.9 10.9-10.9-4.9-10.9-10.9 4.9-10.9 10.9-10.9z"/><path class="st1" d="M81.6 81.6c.4-.4.9-.8 1.3-1.3 2.8-2.8-.8-10.4-5.3-19.3l-1.7-3.4c-1.5-3.3-2.3-6.7-3.1-9.9-.3-1.1-.5-2.3-.8-3.4-1.2-4.6-3.7-5.4-5-5.5-2.1-.1-4.2 1.3-5 3.5-.5 1.3-1.8 2.4-2.9 2.3-1-.1-1.5-1.5-1.7-2.4-3.1-13.2-12.8-14.9-21.5-5.3-1.5 1.7-3 3.5-3.7 5 0 .1-.1.1-.1.2s0 .1-.1.2c0 .2 0 .5-.1.7-.4 2.4.5 6.6 4.5 10.7 2.5 2.5 4.9 3.6 7 4.6.3.1.6.3.8.4 1.5.7 3 1.5 4.5 3 2.1 2.1 3.1 4.1 4.2 6.2.1.1.1.3.2.4.1.1.2.3.2.4.1.1.2.3.2.4.1.1.2.3.2.4.1.1.2.3.3.4.1.2.2.3.3.5.1.2.2.3.3.5.1.2.2.3.3.5.1.2.2.3.3.5.1.2.2.3.3.5.1.2.2.3.4.5.1.2.2.3.4.5.1.2.3.3.4.5.1.2.3.3.4.5.1.2.3.3.5.5l.5.5.5.5.1.1.4.4c3.9 3.8 6.9 6.1 9.6 7.3.1 0 .2.1.2.1s.1 0 .1.1h.1c.5.2 1 .4 1.5.5h.1c4 1.1 7.4.2 10.9-2.8zM55.1 42.9c.8 3.5 2.9 4.2 4 4.3 2.1.2 4.4-1.5 5.4-3.9.5-1.2 1.6-2 2.6-2 1.2.1 2.2 1.4 2.8 3.6.3 1.1.6 2.2.8 3.3.2.6.3 1.3.5 1.9-2.6 1.8-5.3 2.4-7.2 1.7-.6-.2-1.4.1-1.6.7-.2.5 0 1 .3 1.3.1.1.3.2.4.3 2.5.9 5.7.4 8.7-1.5.2.9.5 1.8.8 2.6-2.3 1.5-4.6 2-6.2 1.4-.6-.2-1.4.1-1.6.7-.2.5 0 1 .3 1.3.1.1.3.2.4.3 2.3.9 5.2.4 8-1.4.1.3.2.6.4.9.2.5.5 1.1.8 1.7-1.9 1.2-3.8 1.6-5.2 1.1-.6-.2-1.4.1-1.6.7-.2.5 0 1 .3 1.3.1.1.3.2.4.3 2.1.8 4.7.3 7.3-1.2 1.5 2.9 3.3 6.5 4.5 9.7 1.9 5.1 1.1 6.1 1 6.2l-.9.9c-2 .1-3.5-.5-5-1.2-1.8-.9-5.7-4.2-10.1-8.6-4.4-4.4-8.1-8.7-9-10.5-.2-.3-.4-.7-.5-1.1-2-4-4.6-9-7.4-11.8-2.3-2.3-6.2-5.6-10-8.1 6.9-7.5 14-5.5 16.6 5.1zm-4.6 17c-.5-.5-1-1-1.5-1.3-1.5-1.2-3-1.9-4.5-2.6-1.6-.7-3.1-1.4-4.6-2.6-.6-.4-1.2-.9-1.7-1.4-3.8-3.8-4.1-7.6-3.7-8.8v-.1c.1-.3.4-.9 1.3-2 0-.1.1-.1.1-.2.2-.2.4-.5.6-.8 3.8 2.3 7.6 5.7 9.9 7.9 2.5 2.5 5.1 7.5 6.9 11.2.2.4.4.7.6 1.1 1.2 2.4 5.9 7.5 9.5 11.1 1.8 1.8 7.7 7.6 10.8 9.1.8.4 1.7.8 2.9 1.2-.1.1-.2.1-.4.2h-.1c-.1 0-.2.1-.3.1h-.4c-.1 0-.1 0-.2.1h-.6c-.3 0-.5.1-.8.1h-2.2c-.1 0-.2 0-.3-.1h-.1c-.1 0-.2 0-.3-.1h-.1c-.1 0-.2-.1-.4-.1-.4-.1-.7-.3-1.1-.4-.1 0-.2-.1-.3-.1h-.1c-.1 0-.1-.1-.2-.1 0 0-.1 0-.1-.1l-.1-.1c-.1 0-.1-.1-.2-.1h-.1c-.1-.1-.2-.1-.3-.2-2.1-1.2-4.6-3.2-7.6-6.2l-.4-.4-.1-.1-.5-.5c-2-2-3.1-3.8-4.1-5.6-.2-.4-.4-.9-.7-1.3-1-2.2-2.2-4.4-4.5-6.8z"/></svg>