<svg id="Слой_1" xmlns="http://www.w3.org/2000/svg" viewBox="0 0 120 120"><style>.st0{fill:#dcff00}.st1{fill:#2e3350}</style><path class="st0" d="M56.3 33.2c6.2 0 11.3 5.1 11.3 11.3s-5.1 11.3-11.3 11.3S45 50.7 45 44.5s5.1-11.3 11.3-11.3z"/><path class="st1" d="M86.5 60.3h-1.2V53c0-3-2.4-5.4-5.4-5.4h-1.1V45c0-2-1.6-3.6-3.6-3.6H43c-2.4 0-4.4 1.9-4.4 4.3v35.6c0 2 1.6 3.6 3.6 3.6H80c3 0 5.4-2.4 5.4-5.4v-7.3h1.2c1.6 0 2.8-1.3 2.8-2.8v-6.3c0-1.6-1.3-2.8-2.9-2.8zM43 43.9h32.2c.6 0 1.1.5 1.1 1.1v2.7H43c-1.1 0-1.9-.9-1.9-1.9s.9-1.9 1.9-1.9zm39.8 35.7c0 1.6-1.3 2.9-2.9 2.9H42.2c-.6 0-1.1-.5-1.1-1.1V49.8c.6.3 1.2.4 1.9.4h37c1.6 0 2.9 1.3 2.9 2.9v7.3h-8.5c-1.6 0-2.8 1.3-2.8 2.8v6.3c0 1.6 1.3 2.8 2.8 2.8h8.5l-.1 7.3zm4.1-10.1c0 .2-.1.3-.3.3H74.3c-.2 0-.3-.1-.3-.3v-6.3c0-.2.1-.3.3-.3h12.2c.2 0 .3.1.3.3l.1 6.3z"/></svg>