<svg id="Слой_1" xmlns="http://www.w3.org/2000/svg" viewBox="0 0 4000 1200"><style>.st0{fill-rule:evenodd;clip-rule:evenodd;fill:#e5e8ff}.st1{fill:none;stroke:#4f5474;stroke-width:5.6693;stroke-linecap:round;stroke-linejoin:round;stroke-miterlimit:22.9256}</style><path class="st0" d="M1787.1 971.1c2.3 4.5-9.4 19.8-11.4 25.5-1.1 3.3-4.9 8.8-4.9 11.6 113.2 44.3 193.6-25.3 282.4-21.8 2.8-7 3.7-13.7 2.2-21.5-.4-2-45.9 9.1-54 9.8-24 2.1-53.5 11.4-79.7 13.6-13.1 1.1-50.3 8.5-61.2 2.7-3.8-2-35.9-1.8-57.1-13.8-2-1.1-16.4-6.2-16.3-6.1zm136.5-765c-8.1-2.7-14.7-8.2-16.4-16.7-3-14.9 17.2-33.2 18.2-44.7 21.4 21.7 86.3 41.7 106.2 42.6 1.6 7.2-.2 16.9-2.3 23.1-6.1 18.3-71.8-10.8-77.4 10.1-2.8 10.4 39.2 13-2 71.9-3.5 5.1-4.7 8.9-4.2 11.8.9 5.2 7.1 7.1 14 6.8 2.3 22-17.4 59.7 9.3 73.1 1.7-.5 4.2-4.1 6.3-7.2 4.3-6.4 19.9-17.1 24.7-24.5 2.9-4.6 10-8.6 16.9-20.4 5.4-9.2 11.9-29.8 13.7-40.6.9-4.9 21.5-21 25.1-30.7.3-.7 5.6-7.5 5.7-7.9.4-2.2 7.1-11.9 6.8-22.8-.3-8.4 1.3-20.3-4.4-28.3-.2-.2-4.3-19.3-7.5-23.7-3.8-5.3-3.3-12.3-13.1-23.2-12.8-14.1-17.3-12.8-30.2-21-10.8-6.9-35.4-10-48.7-11.6-20.3-2.4-32 .8-47.6 12.5-6.1 4.6-6.8 17.1-8.3 17.1-16.8 0-26.1 23.4-27.8 37.1-1.4 11.4-3.8 5.6 5.9 19.2 2.6 3.7-.8 21.1 2 28.1 4.2 10.1 3.1 9.6 5.9-2 3.8-15.3 14.5-23.3 29.2-28.1zM2127 401c15.3 6.7 18.8 23 18.8 32.2 0 12.7-6.6 17.3-10.7 29 7.1-3.2 17.9 3.9 11.7 15.8 8 1.2 11.6 19.4 3.6 27.9 11.6 51.3-58-1.7-60.9-50.8-5.2 3.1-6.2 18.7-2.6 25.3 2.8 5.1 1.9 7.1 6.4 14.6 6.1 10.4 12.2 21.2 20.5 30.5 5.6 6.2 13 18.4 23.8 21.8 2.7.8 7.6 5.7 13.1 6.3 16.7 2.1 9.9-3.7 16.8-15.4 5.1-8.6 9.7-30.5 3-40.7-3.6-5.5-8.1-21.5-1.4-26.8 2.5-1.9 6.3-12.3-4.5-16.1-12.5-4.5-3.7-4.7-2.3-16.4 3-24.8-23.6-29-23.6-41.9 0-7.4.8-49.2-4.7-51.6-5.1-2.2-12.8 0-16 5 13.9 2.2 7.7 35.5 9 51.3zm-379.7 152.6c-53.2 60.9 9.4 131.8-84.6 153.9 0-12.3 12.9-31.7 12.9-63.7 0-16.8 4.9-50.7-1-65-3.1-7.6-2-54.6 1.4-61.8 12.1-25.5-3-23.9 28.5-48.4 31.6-24.6 2.7-25.1 60.1-43 23.5-7.4 45.7-17.2 58.1-36.9 2.6-4.1 13.1-14.9 18.5-14.5 0 5.6 20.5 94.4 26.9 70 1-3.9 33.7-37.6 37.6-38.4 8.1-8.7 7.3 19.8 16.3 28.8 5.3 5.3 13.7 17.7 27.8 17.7-.2-30.8 10.8-15.9 30.6-28.9.2-.1-1.2 17.1-8.5 16.8-11.2-.4-15.1 31.7-8.6 40.8.4.6.1 6.1.4 7.5 1.4 6.1 9.4 28.8 8.3 37.5-4.9 40.2-3.3 47.1-40.8 60.3-14.4 5.1-27.3 8.1-46.9 8.1-14 0-34-26.4-38.5-39.4-9.2-26-82.3-20-98.5-1.4zm99.8 218.4c4.1 18.8 17.8 50.4 42.4 60.7 22.2-12.8 22.1-37.7 49.9-36.7 1.7 11.9 8.5 24.1 24.5 30.6-16 4.3-20.5-2.3-27 2.3-1.2.9-12.4.2-15.8 2.6-.9.6-41.6 8.9-34 8.7 42.2-1.1 67 20.6 95.3 15.8 0 6.6-13.1 26.8-39.9 26.2-16.2-.3-56.1-5.2-73.5-1.9-6.6 1.2-16.7 8.4 2 6.1 43.6-5.5 121.3 14.2 162.1 1.5-8.3 47.2-91.9 43.2-128.8 34.6-8.4-2-13.2-.9-9.4.5 12.4 4.6 43.9 17.3 104.3 17.2-2.1 15.2-55 19.2-66 20.8-12.6 1.9-45.5 2.4-57.5-.3-12.3-2.8-30 1-44.9-3.9-.1 0-17.4-.9-21.1-3.6-3.9-2.8-28-5.7-27.7-14.3.4-9.7-2.7-8.2.4-23.6 2.2-10.8 3.7-9.8-1.3-18-10.8-17.9 4.8-35.8-9.8-58.1-2.5-3.8-55.9-31.5-63.7-35-3.2-1.4-31.5-16-31.5-16.8 0-11.6 4.1-18.3 9.3-28.2.6-1.1 7.3-9.4 9-9.7 47.9 17.2 109.7 4.8 152.7 22.5zm362-85.2c43.3 31.9-84.2 44.1-84.2 72.3.9 3.4 31.4-1.6 36.6.6 5.3 2.3 17.6-.4 21.7-3.6 6.6-5.2 23.2-9.6 31.7-16.5 6.4-5.1 36.4-15.1 46.5-23.3 6-4.8 41.4-18.2 29.6-26.9-6.6-4.8-4.8-6.2-16-3.9-20.2 4.1-44.4 1.6-64.9.3-.8.1-1.5.7-1 1z"/><path class="st1" d="M743.8 540.9c411.1-197.2 725.3 285.6 1044.4 428.2 107.1 47.9 226.6-6.1 291-8.5 6.2-12.7 5.1-27.1-.4-37.6-16.5 8.8-53.2 28.1-93 34.6-72.6 11.7-169.2 3.7-200.6-12.7-2.7-10.2-4-26.1-.6-39-14.1-24.4 3.5-49.2-12.8-65.4 83 14.4 139.8-11.5 194.8-12.4-40.8-70.7-14.1-105.7 46-113.9 19.5-2.7 31.6 11.4 12.6 16.7-41.9 11.5 14.4 21.1 72.1-4.2 18-7.9 22.9 6.2 6.3 16.2 3.9 13.5-1.5 11.9-33 33.9-14.8 10.3-73.2 57.2-95 35.6-26.6-26.3-4.8-52.8 16.1-70.5 24.7-21 34.7-30.2 35.2-41.8 2.5-54.1-53.4-224.1-53.6-238.3-.3-14.2 3-31.7 8.1-39.1-7.7 7.8-16.8 9.9-26.5 8.1-36.5-6.7-81.7-67.1-93-77.5-3.6 11.9-17 22.6-34 27.9-27.3 47.2-87.8 37.7-108 69.9-20 31.9-36.7 29.1-42.4 58.2-8.9 45.5 1.8 91.3-1 144.1-1.5 27.3-17.8 51.6-21.9 94.5-5 52.1 69.2 55.2 97.5 82.6-34.4-17.7-99-6.6-69.6-63.8 6.2-12 49.7-62.2 72-41.6 14.6 13.5-80.3-3.2-80 12.5.4 15.8 128.6 6 133.8-20.2 6.1-30.8-9-159.4 8.1-155.1 15.3 3.9-22.6 85.5-20.4 138.4.7 17.6-19.7 15.9-20.8 24.5-2.5 19.7 85.4 12.1 101.8 26-3.9 14.6-6.8 36.3 10.2 72.7-4.2-9.7.6-68.3 11.6-70.5 28.9-5.9 48 6.3 76.5-12.4 20-13.1 31.3-24.5 36.4-37.3-.7-79.3-53.9-208.7-51.3-241.4-.7-34.5 29.2-25 46.2-6.3 6.5-45.4-28.1-79.7-28.1-95.1 0-45.3 117.2-97.4 85-162.4-8-16-1.9-42.8-59.9-68.9-25.1-11.3-85.5-16.2-94.1 22.8-40.3-16.7-63.3 206.6 4.6 226.2 28.4 8.2 43.2 19.1 61.2.1 60.1-63.1 39.2-49.2 67.3-117.2 1.7-4.2 12.5-37.8 8.4-53.4-73.7 11.8-120.3-48.8-123.7-42.8-5.6 9.8-8.4 24.4-3.4 40.8-21.7 2-30.9 26.7-29.7 37.6-19.3-18.4 7-41.5-22.4-46.9-34-6.3-29.7 38.9-16.1 52.5-9.2 5.6-9.9 26 5 29.6-6 16.1-5.9 44.7-.5 61.6-14.5-2.1-10.1 14.1-29.1 25.4 26.5 28.6 13.6 54.3 34.3 80.8 1.5-1 20.6-17.8 34.1-36.6 4.2-5.8 10.2-6.4 13.4-3.8 0 29.7 20.4 43 37.3 47.5-4.1-25 18.2-30.4 22.9-58.4 5.3.3 42.2 42.7 96.2 53.3-13.2 15.6 4.4 46.3 17 71.8-17.3 37.2 5.3 101.9-21.3 161.3-14.4 32.2 11.7 26.9 11.7 77.6-19.5 6-27.7 26.9-50.7 27.3 28.8-13.4.8-86.4 91.6-86.4h82.7c0-36.8 3.7-81.1-17.5-117.8-7.8 13.5-24.2 23.4-36.4 23.4-29 0-54.4-20.8-45-39.3 6-11.7.8-34.4-.6-41.2 4.4 6.8 22.5 39.5 41 39.5 9.7 0 20.1-9.5 27.5-31.7 15-44.8-20-44.4-8.1-88.3 5.4-20.3-7.2-33.7-21.6-40.7-3-15.1-1.8-24.9-1.5-46.2.2-13.1-5.2-13.8-10-13.8-4.8.1-9.3 1-13.2 15.4-4.6 16.5-8.4 41.1-5.4 65.7 4.3-5.8 10.3-10.8 17.7-15.3 9.6 17.4-2.7 33-16.7 42.5 27.3 11.9 2.9 52.9 28.7 39.2-5.4 16.3 12.3 29.5 28-12.6 15.3-41-17.8-6.7-16.4-39.2 0-1-21.5-25.1-38.8-5-18.7 21.7-39.1 17-23.8 48.1 13.9 28.2 40.2 87.2 84.9 67.1 3.2 5.3 4.6 13 4.4 19.8-8.1 14.6-35.2 28-49.1 37.1-33.1 21.7-20.8 53.2-12.5 61.5 4.8-18 .5-50.3-8.8-66.5-12.6 3.7-10.3 58.9-22.1 85.3 7.8 0 158.7-.7 198.7-.7 10.3 0 10.3 11 3.8 14.7-23.2 13.4-67 35.5-109.5 58.2h-63.8c-11.9 13.9-34.5 25.3-46.7 37.3 7.9 17.1 2.7 31.1 3.1 51.7.3 17.3 5 26.8 4.8 39.8-72.1 197.5 217.9 238.8 432.4 134.6 252-122.5 546.3-124.1 748.5 34.2"/></svg>