<svg id="Слой_1" xmlns="http://www.w3.org/2000/svg" viewBox="0 0 4000 1200"><style>.st0{fill-rule:evenodd;clip-rule:evenodd;fill:#e5e8ff}.st1{fill:none;stroke:#4f5474;stroke-width:5.6693;stroke-linecap:round;stroke-linejoin:round;stroke-miterlimit:22.9256}</style><path class="st0" d="M1723 103.3c15.8 21.8-13.8 46.6-2.4 51.4 7.9 3.3.1 14.7 5 18.9 10.4 8.8 6.6 12.6 21.4 10.7 1.8-.2 6.2-2.2 7-.5 3.7-3.4 14.9-8 18.8-2.6 2.2 3.1 4.5 4.5 7.8 9.5.7 1 5.7 7 5.7 6.2 0-6.8-4.3-13.7-4.3-25.5 0-5.3.6-13.3 6.5-14.6 4.8-1.1 7.2-8 8.5-11.8 3.4-9.5 2.6-20.6-9.8-21.8-1.9-.2-6.9.1-6.8-.8.1-1.8-6-8.5-9.5-9.1-7-1-8.5-.5-15.8-3-3.2-1-33-8.2-32.1-7zm455.1 866.9c57.6-6.2 65.4 21.7 117-9.1 13.7-8.2 29.8-5.9 36.8 13.8 5.4 15.3.2 45.8 8.8 57.9 2.8-7.9 2.2 1.5 2.2-18.9 0-3.8.9-27.2 2.8-28 2.2-8.4 2-28.1-6.6-33.8-3.2-2.1-15.1-14-20.5-15.2-4.1-.8-7.6-4.9-17.6-1.5-1.3.4-29.3 22-40.9 26.3-5.7 2.1-19 2.7-24.7.4-18-7.4-34.4-.1-51.4 5.2l-5.9 2.9zm-118.5-150.5c-8.6 25 26.1 33.5 40.5 64.4-1.1 1.5-4.3-.2-3.1 1.6-4.5 5-21.5 5.6-25.9-.3-1.9-2.5-3.6.9-8.2-10.6-2.3-5.9-5.7-11.4-7.9-17.8-2.8-8.1-3.6-7.3-3.6-16.5 0-2-1.5-5.3-.1-8.6.2-.4 1.3-7.1 2.6-7.5.5-1.6 5.4-3.7 5.7-4.7zm-61.6 91.9c32.4 15 73.3-9.8 94.1 27.6-11-4.6-15.8-4-22.1-2.1 22.4 4.5 32.5 46.6 42.2 45.2-3.9 2.7-13.2 2.5-17.3-1.1 27.9 46.9-21.4 75-40.3 163.4-11.4.4-13.9-10.7-8.8-18.6.3-.5 4.3-16.8 4.9-19.1 1.9-7.2 4.8-22.2 8.2-27.8 4-6.5 16.6-47.7 16.6-55.5 0-22.4.5-17.9-14.4-35.1-3.6-4.2-13.6-10.6-20.9-18.8-5.1-5.7-21.9-18.9-23.5-24.1-1.4-.5-6.4-19.7-11.2-25.5-.4-.8-3.2-4.1-7.5-8.5zm31.2-118.4c-46.3-8.9-12.4 36.9-45 45.7-11.5 3.1-17 18.1-30.8 10.4 10.6-6.2 8.6-13.6 15-27 8.1-17.2 13.7-18.6 28.1-27.8 3.6-2.3 13.9-11.2 29.9-3.1 7.1 3.6 3.3 1.9 2.8 1.8zm386.3-63.2c13-1.2 27.3 9.7 29.4 25.5 1.3-1 12.3-10.8 12.3-10.8 0-17.2-15.6-27.3-24.1-27.3-8.3.4-4.6 3.4-15.6 11.1-1.4 1-2.7 1.6-2 1.5zm-323.4 102c7.5 7.3 27.3 33.4 19.5 44.4 21-9 55.6-2.2 66.4 11.2 2-5.3.2-11.6-2-15.6 16.9 0 47.8 9.3 53.5 21.7 1-4 3.8-10.4-1-17.6 21.5-4.2 61.9 16.8 62.9 30.9 5.6-7.5 7-17.3-.5-24.3 14 0 60.7 19.9 63.5 38.6 11.6-11.2 5.3-36.9 2-41.1-6.3-8-12.9-40.2-5.4-49.1 1.9-2.3 7.3-14.8 13.4-20.6 0-8.5-9.5-16.3-19.2-16.9 3.6 3.6 5.3 11.9 0 20.8-4.5-15.8-20.6-18-20.7-18.2-.1-.1-26.2 11.7-30.1 12.4-12.4 2.3-30.2 5.8-42.8 2.2-18.4-5.4-62.4-2.5-81.3 2.7-1.5.4-41 7.1-41.2 7.1-4.2-.1-23.1 7.4-34.9 7-11.9-.5-3 3.6-2.1 4.4zm-323.6-37.7c9 17.2 26.7 77.4 38 80.3 23.7 6.1 21.3 25.6 21.9 44.9 1.3 37.7 19 44.7 35 76.9 5.5 11.1 13.5 30.4 16 42.8 5-9 6-35.1.7-49.2-2.4-6.4-9.2-18.5-14.7-25.1-4.5-5.4-6.9-35.9-7.5-44.3-1.1-15.3-7.6-35.3-26-35.3 0-7.8 2.1-28.9-2.4-34.3-.1-.1-10.3-35.3-15-39.3-3.8-3.2-20.5-50.3-25.9-53.2 1.1-2.2 1.8-4.4 1.8-6.7 0-9.5 26.6-62.7 31.9-73.5 8.1-16.6 1.5-14.6 14-32.1.3-.4 7.3-19.3 13-27 10.9-14.8 27.4-55.6-.5-64.2-11.1-3.5-50.8-7.6-58.5 3.5-51.7 75-5.5 142.3-60.9 228.8 10.4 0 38-8.4 52.2-20.5-6.3 9.5-14.8 24.1-13.1 27.5zm-68.5 91.3c.6 1.8-17.5 96.8-52.1 137.4 35.5 1.4 97.9-108.2 82-133.6-1.5-2.4-18.1 4-27.2-2.5-.2 0-2.3.1-2.7-1.3zm-1.1-205.7c-26.2-40.6 15-69.9 1.5-103.8-10.5 0-20.6-1.4-30-5.2-6.5-2.7-.9 32.3-1.7 38.6-.8 6.7-2 46.1 2.1 48.9.1.1 10.2 20.9 13.1 24.4 12.2 14.3 13.9 22 15-2.9zm122.8-163.2c11.1-14.1-24.7-59.8-23.4-106.5 1.1-41.7 38.6-70.9 50.7-108.3 0-39.1-34.5-58-67.9-58-41.7 35.8-55.4 37.6-91.6-8.4-3.8-.5-9.8 3.3-19.7 7.2-4.8 1.9-29.1 8.6-30.1 13.4-2.8.6-4.5 2.3-3.2 5 32.7 92.5 81.5 52.6 106.3 52.5 14.7-.1 28.8 6.6 34.6 17-34.6 78.7 10.3 148.5 44.3 186.1zm12.1-295.4c22 9.9 42.1 69.1 67.5 83.1 12.2 6.7 52 34.7 56 47.6 9.1 29.1-32.5 67.1-35.1 82.9 2 .3 1.6-.7 5.9-3.3 5.5-3.4 30.5-30.4 31.7-37.6.4-2.3 6.8-7.8 8.2-14.5.4-2.1 6.7-11.5 7.9-18.3 1.4-8.5 9.5-35.6 1.9-42.1-6.9-5.9-13.2-12.9-22.2-16.9-2.9-1.3-11.5-11.9-19.4-15.6-4.7-2.2-14.8-20.2-19.3-18.5-3.3-8.5-20-17.2-29.2-19.2-12-2.6-10.2-9.6-19.1-16.1-15.2-10.9-16.9-9.5-34.8-11.5zM1730.9 56.4c7.8 7.3 9.1 13.8 8.4 24.8 27.3-4.3 76.2 39.3 75.4 48.6 0-.8-2-12.3-4.1-16.9-.5-1-6.5-8-8.4-12.5-9.3-21.6-5.5-38.5-4.6-48-.2 0-14-7.4-17.1-8.4-12.7-3.8-22.9-11.9-33.2-1.7-3 3-6.9 7.1-10.5 9.4-2.1 1.3-2.7 3.3-5.9 4.7z"/><path class="st1" d="M3.7 669.2c360.7 285.1 1064.6 475 1610.3 475-46.7-31.2-110-95.4-67.9-119.6 15.4-8.8 72.9 70.9 80.2 92 23.8 68.7-119.9-79.2-49.3-79.2 75 0 74.2-13.8 77.4 62.6.7 17.1-43.1 29.4-3.7-43.3 17-31.3 84.2-113 80.8-168-8.3 3.5-24.4.7-42.1-7.5-21.3-10-18 19.7-27.9 47.2-15.6 43.3-37.5 97.5-52 117.9-4.5 6.3 9.3 1.8 31.7-16.7 17.5-14.5 55.8-73.9 82.7-140 31.1-76.4 91-176.9 111.3-243.8 8.9-29.4 49.1-62.4 17.5-88.4-54.5-33.3-76.2 43.8-186.3 13.4 7.6 53.4-11 86.2 30.8 131.1-2.5-64.3 54.9-57.1 23.7-103.2 10.7 94-55.9 194.3-47.5 265.9 14.5-.6 25.2-1.3 42.2 4.7 7.7-27.1 16-49.2 24.8-63.1 10.4 15.4 38.2 86.3 37.7 99.6 15.8-1.3 28.4-5.7 39.2-13.5 0 8.8-12.7 20.7-30.1 24.7 24.6 39.5 38.1 93 70.7 128.7 6.4 7 27.3-10.2 35.3-16.5 14.5 2.2 11.4 39-57.6 23.6.7 7.6-1.1 32.2-28.5 40.6-47.4 14.6-25.5 41.9 6.9 42.7 20.5.5 42.5-1.3 65.6-18.4 25.3-18.7 67.8-18.8 30.6-62.3-21.1 74.4-123.3 71-85.3 49.7 45.8-25.7 79.8-75.4 44.1-133.7-19.9-32.4-5.3-84.3-36.8-85 9.4-25.2-24.6-84.3-43.2-127.2-10.2-23.4-7.4-58.9 12.5-89.8 37.4-58.3 74.3-108.4 28-183.4-40.2-65 20-152.2 37.8-177.8 17.1 32.5 42 40.6 64.4 43.5.9 6.1-5.4 16.7-9.2 26.9-12.3 33-101.2 18.5-83.6 69.2 72.1 18.5 88.5-34.3 60-30.7-9.3 1.2-4.2 10.4 19.7 19.8 35.5-17.6 88.2-110.8 49.4-127.9-45.8-20.1-59.7-63.9-87.1-61.5-17.4-39.2-75-14.7-90.4-45.8-3.5-7-12.7-25.9-7.2-44.2 11.4 6.4 28.8-38.2-3.3-33.8-1.6-12-6.4-11.1-41.6-16.4-39.7-6-49.4-35.6-87.6-23.5 5.4 17.7 18.4 25.8 37.9 32.3 3.3-3.6 6.9-8 9.8-11.8 3.2 17.2-12.7 82.8 18.3 84.8 19.3 1.3 30.8-1.9 42-9.1 13.1-8.4 17.3 1.5 13.6 14.2-6.8 23.3-18.1 29.5-46.8 29.5-10.8 0-2.5-20.6-13.1-26.5 2.6 14.5-5.9 30.9-17.1 36.5-8 4-18.8 1.2-46.1 16.1-24.5 13.4-34.9 64-65.2 71.2 19-19.2 61.2-96.5 45.7-95.3-12.3-23.6-23 3.8-40 6.5-1.5 18.9 14.4 20.9 23.6 16.1 9.7-5 16-16.8-3.2-9.1-6.1 2.5-14.8 7.1-27 14.3-25.6 15-17.5 22.9-5 29.7-21.2 15.5-22.8 42.4-49.6 74.1-12.6 14.9 3.9 38.7 10.5 40.1 35.5 7.3 83.4-25.1 101.3-68.8-.1 31.6-4 44.3 22.5 77.3 44 54.8 3.8 87.8 9.4 148.6 49.3 15 99.6-21.3 149.9-27.8 0-49.8-44.3-61.6-34.2-132.8 11.2-79.5 96.9-94.5 67.9-135.2-19.2-27-58-29.2-76.9-37.2 6.9-45.5 69.7-78 10.4-134.2-7.1-6.8-38.6-30.7-60.6-31.1 9.5 36.9-48.5 24.9-11.6 8 20.2-9.3 26.2-35.1 45.1-25.7 35.6 17.8 64.6 5.1 62.1 55.8-1.6 33.9 15.3 40.4 1.3 76.2 5.7 0 18.3-19.2 23.4-13.5 6.8 7.7-21.4 22.7-12.7 30.8 5.6 5.2 23-17.1 28.1-10.8 5.7 6.9-24.3 20-20.5 29.1 4.3 10.2 28.1-17.8 30.8-7.4 2.1 8.1-25.6 11.6-14.2 39.3 7.4 18 28 38.7 38.4 43.7 148.3 71.3-59.6 209.7-41.6 144.2 112.4 106.1 63.1 260.7 171.8 367.1-18.4-13.5-56.1 6.8-61.2 32.2-6.7 33.6-45.2 21.1-48.2 46.8-3.3 28.4 29 8 28.2-.4-.2-2.3-10.9-7.8-13.5.1-4.7 32.8 58.7 17.5 70.6 10.3-16.9 56.1-96.9 24.2-41.5 23.5 18.5-.2 19.4-7.3 34.2 5.8 15.9 14.1 13.6 33.4 34 50.3 49 40.9 50.8 53.2 31.1 110.1-3.4 9.7-31.1 72.7-12.8 72.7 16.6 0 18.2 3.6 24-24.6 2.8-13.9 13.5-26.8 23.9-38.4 18-20 15-24 43.7-39.5 24.4-13.3 28.4-58 14.8-78.8-1.2-1.8-12.9-39.6 3.6-39.6 26.6 0-48.2 62.1 23.1 70.9 35 4.3 63.2-9.1 81.3 41.9 13.5 38-15.7 59.8-17.5 80.8-1.4 16.2 24.2 21.8 36.4-5.6 12-26.9 36-28.3 40.1-56.4 2.7-19-18.9-40.9-26-60-1.4-3.7-2-7.8-1.9-11.6.4-32.5 17.2-9.6 21.5 8.8 7.6 32.8-20.5 54.1 1 85.8 19.4 28.5-13.8 68.5 22.5 60.5 21.9-4.8 9.1-40.5 14.6-75.1 6.8-43.6 34.5-35.3 34.5-88.9 0-74.1-41.3-75.9-42.3-129.3-.3-17 15.6-39.5 37.6-51.2 51.4-27.5 162.6-110.6 91.3-158.4 24.1 52.9-104.2 121-149.7 155.1-34.6 25.9-61.6 22.9-99.7 18-54.2-7-125.8 26.9-144.3 16.6-54.7-30.4-26.6 56-8.8 62.9 21.8 8.5 37-13.1 39-18.1 5.3-13.2-16.5-31.4-26.8-39.5-7.6-6.1-8.9-43.2-41.4-33.4-18.2 5.5-8.1 82-4.7 96.5 26.6 112.5 66.2 63.5 55.4 235.3-1.1 17.9 32.2 8.3 32.9 3.6 10-62-.5-89.5 3.5-121.9 3-24.2 51.6-46 76.2-51 34.2-7 31.6 24.4 89.8-24.2 11-9.2 48.5 3.3 48.5 41.4 0 34.4-15.4 102.6 2.3 130.4 101.3 159.8 1066.1-527.4 1647.6 55.8"/></svg>