<svg id="Слой_1" xmlns="http://www.w3.org/2000/svg" viewBox="0 0 4000 1200"><style>.st0{fill-rule:evenodd;clip-rule:evenodd;fill:#e5e8ff}.st1{fill:none;stroke:#4f5474;stroke-width:5.6693;stroke-linecap:round;stroke-linejoin:round;stroke-miterlimit:22.9256}</style><path class="st0" d="M2003.5 318.2c.9 2.8 16.1 3.3 19.7 14.9 3.6 11.7-15.5 12.2 4.1 24.4 9.2 5.7-9.4 36.9-2.1 38.9 3.9 1 11.7 4.2 11.7 9.2 0 44.7 25.6 38.2 37.9 8.4 2.9-7.1 5.9-16.4 6.8-23.9.5-4.3 2.3-5.9 2.3-13.2 0-12.1-2-14.1-2.8-23.6-1.3-16.1-6-27.7-20-36.3-8.8-5.4-16.9-1.9-27-.2-6.1 1-7.8 4-18.8 4-1.4.1-11.4-1.1-11.8-2.6zm9.5 205c5 10.1 18.7 34.9 30.5 34.9 17.6 0 35.1-34.9 51.1-40.2-11.4 14.5-14.5 87.2-47.1 87.4-24.1.2-37.1-63.6-34.5-82.1zm-60.2 359.2c-2.8 3.9-8.1 5.3-13.6 3.4 0 0-10.8-36.2-17.6-51-4.2 1.7-8.5 4.6-14.7 5.8-1.1-15.8-5.8-32.7-12.3-41.8 7.3-3.6 12.5-4.2 19.6-6.4 5.1-1.6 2.8-5.4 9.5 5.3 2.8 4.5 6.3 9.5 7.1 14.7.4 2.9 7.6 23.5 9.3 27.6 3.1 7.7 8 21.2 10.1 29.2.4 2.1 3.6 11.8 2.6 13.2zm-44.2-171.5c-47.2-6.6-70.4 41.5-77.2 60.7-.1 0-2.6-23.7-3.3-26.5-1-4.3 1.6-12.5 2.5-16.6 1.5-6.8 5.4-18.4 8.8-24.4 5.7-10.1 1.5-8.7 11.4-17.9 6.1-5.6 11.6-6.1 18.3-11.4 2.6-2.1 4.5-2.8 7.6-1.4 5.9 2.6 12.1 8.8 16.7 13.4 6.7 6.7 8.3 16.6 12.8 20.6.2.1 2.6 3.5 2.4 3.5zm325.7-15.8s-39.9 6.1-50.1 34.2c21.4 20.3 38.3 55.4 40.9 84.4 9.4 0 21.3-6.7 23.1-6.6 6.5 12.3 7.5 33.2 5 43.1 3.3-.3 4.9-2.6 8.4-.3 0-.1 10.6-7.5 12.8-14.7 5.6-17.9 6.5-17.5 3.7-37.8-.9-6.7-.8-14.7-3.2-21-.7-1.7-3.4-19.8-6.2-22-.4-.3-15.3-33.2-19.6-38.9-2.3-2.9-15.5-20-14.8-20.4zm-40.3-46.8c-19.3 39.3-98.8 36.2-103.1 91.9-20.9-17.8-52.4-12.8-64.2.3-10-29.3-57.8-40.8-73.8-39.9 7 17.1 4.6 55.3-5.1 64.9 12 17.7 26.6 32.8 65.4 45.5 33 10.8 53.5 18.7 90 21.5 8.5.6 71.2 11 71.2 4 0-19.5-4.6-49.6-21.3-60.1-42-26.3-8.5-99.3 54.8-99.3.3-.1-14.5-23-13.9-28.8zm1.7-73.3c-.8-54.3-38.6-81.9-38.6-126.6 16.7 3.4 38.1-23.1 53.2-44.4 10.7-15 24.3-24.8 54.6-29.8 38.2-6.4 95-44.5 117.5-71.3.3 0 6.6 4.1 5.7 5.2-13.3 17.7-39.6 46.8-59.3 56-.2.1-36 23.1-36.1 23.2-6.1 7.5-33.7 7-32.6 21.3.2 2.5-16.8 40.6-21 44 1.5 4.2-1.8 5.5-4.4 8.9-3.4 4.3-20.4 12.4-27 13.5-6.7 1.1-2.4 19.7-2.6 24.8-.4 10 1.3 24.6-2.5 34.9-1.6 4.5-3.5 32.3-6 36 0 0 .3 2.6-.9 4.3zM1965 484.7c-7.4 17.6-4.5 18.2-7.9 34.9-3.5 17.1 6.1 24.3-11 5.3-4.4-4.9-1.6-45.7-5.1-46.3-5-.9-31-13.6-33.9-17.2-2.3-2.9-24.8-20.4-26.2-25.5 0-.2-9.5-14.3-11.2-19.9-2.5-8.2-19.5-38.1-26.2-40-22.4-6.4-59-30.4-61.2-54 4.7 12.7 62.6 30.3 81.4 30.3 0 16.9 6.2 27.5 16.2 40.1 20.7 26.4 91.7 19.2 106.7 61.5 1.5 4.3-11.2 5.9-21.6 30.8zM1796.9 205h476.5l-476.5 17.3-1.6-8.6 1.6-8.7zm-260.6-59.3c-3.5-5.4 9.1-29.2 11.2-34.7 1.7-4.3 8.3-12.7 8.3-12.8.3-.1 8-8.2 11.7-9.8 5.7-2.5 12.9-7.9 19.6-9.3 9.2-1.9 7.2-3 19.2-3 13 0 26.5-.7 40-.7 10.4 0 19.6 1.5 31 1.5 6.7 0 23.9 4 21.3 3.9-45-1.3-65.9 34.1-76 60.5-2.1 5.6-8.2 4.5-5.7-1.7 4.6-10.9 10-29.8 18.1-39.5 4.8-5.7-.5-9.5-5-5.2-12.1 11.5-32.6 44.4-38.4 58-2.4 5.6-7.6 3.7-5.5-1.4 6.6-15.5 17-38.5 24.5-51.5 4.5-7.8-6.8-12.1-12.1-4.1-18.7 28.3-32.5 41.6-40.9 75.8-1 4.1-6 2.4-5.5-1.4 2.6-17.7 13.8-54.5 26.3-67 8-8-3.8-13.4-11.5-6.2-13.1 12.5-27.7 37.9-30.6 48.6zm-7.5 101.9c0 24.4 24.1 110.4 70.1 116 10.5 1.3 71.1 2.6 83 2 21.1-.9 20.2-5.3 30.7-23.5 3-5.1 15.3-17.3 14.9-28-.2-4.4 3.4-21.5 3.1-33.8-32.1 42.5-68.4 16.9-80.2-3.8 0 16.6 20.3 56.9 32.5 69.1 9.3 9.3-17.9-11.1-19.6-12.5-5.9-4.9-17.8-24.6-20.1-32.9-3.8-13.5-15.9-40.9-15.3-54.8.1-3.6-3.2-29.1-.4-31.4-1-8.6 1-28.7 1-28.5-13.7 90.5-80.3 85.9-99.7 62.1zm911.3-123.8c-3.5-5.4 9.1-29.2 11.2-34.7 1.7-4.3 8.3-12.7 8.3-12.8.3-.1 8-8.2 11.7-9.8 5.7-2.5 12.9-7.9 19.6-9.3 9.2-1.9 7.2-3 19.2-3 13 0 26.5-.8 40-.8 10.4 0 19.6 1.5 31 1.5 6.7 0 29 1 26.5 1-36.9 0-71.1 37.1-81.2 63.4-2.1 5.6-8.2 4.5-5.7-1.7 4.6-11 14.2-28.3 22.2-38 4.8-5.7-.5-9.5-5-5.2-12.1 11.5-36.7 42.9-42.5 56.5-2.4 5.6-7.6 3.7-5.5-1.3 6.6-15.5 17-38.5 24.5-51.5 4.5-7.8-6.8-12.1-12.1-4.1-18.7 28.3-32.5 41.6-40.9 75.8-1 4.1-6 2.4-5.5-1.4 2.6-17.7 13.8-54.5 26.3-67 8-8-3.8-13.4-11.5-6.2-13.2 12.5-27.8 37.8-30.6 48.6zm-6.8 121.4c.8 5.4 3 24.9 4.6 28.9 2.1 5.1 8.3 50 11.8 53.9.7.8 6.4 14.8 13 22.5 7.1 8.3 11.7 14.2 22.8 15.6 10.5 1.3 71 2.6 83 2 21.1-.9 49-5.3 59.6-23.5 3-5.1 15.4-17.3 14.9-28-.2-4.4 8.7-20.4 8.4-32.7-32.1 42.5-83 15.3-94.9-5.3 0 16.6 16 57.1 28.2 69.3 9.3 9.3-17.9-11.1-19.6-12.5-5.9-4.9-17.8-24.6-20.1-32.9-3.8-13.5-11.6-41.1-11-55 .2-3.6-3.2-29.1-.4-31.4-1-8.6 1-28.7 1-28.5-13.7 90.2-83.4 82.9-101.3 57.6z"/><path class="st1" d="M583.3 1145.8c459.3-486.6 789.3-280.3 1319.8-164.3 34 7.4 69.7-3.8 67.6-30.1-1.3-16.8 10.2-34.6-5-43.1-9.7 57-12.4 54.8-69.2 54.8-21.7 0-47-8.7-67.2-10.1-15.8-1.1-8.9-12.6 38.7-12.6-3.9-3.1-.7-14 10-10.1-2.5-4.9.5-12.3 10.3-11.5 8.1-4.1 2.6-30.4 10.1-32.1 1.2 23.4 35.5 29 47.3 29.4 24.3.7-5.5-78.3-12.3-97.3-7.2 23.1-38.4 24.5-52.4 20.8 4 16 7.9 25.4 14.2 38.4-16.9-1.4-42.4-63.6-46-81.9 38.4 0 42.4 10.9 79.9-11.2 8.4 33.8 1.1 30.1-15.5-10.1 1.6-38-4.9-117.4-62.3-102.1-40.5 10.9-41 70.8-19.7 107.3-13.4-59.4 11.9-111 62.4-111 57.5 0 46.1 82.9 40.5 103.7 81 98.7 134 60.8 165.2 70 23.5 7 82.4 14.3 98.7-4.9-67.4 2.7-217.2-9.7-250.5-72.1 9.2-15.7 17.8-73-15.8-95.2 28-6.4 65.3 32.7 99 30.2-11.6-6.5-22.4-14.3-30.1-18.9 1.1-21.7-66.9-90.2-12.5-229.3-19.4 20.3-36.3 51.9-33.1 87.1-11.4-13.9-17.2-43.4-12.8-60-62.3-20.5-69.3-67.6-96.4-101.4-67.3-19.2-50.5-57.4-93.8-80.1-6.5 46.9-33.1 66.4-69.3 66.4-12 0-56.5-.3-80.7-.3-42.1 0-73.8-70.8-73.8-124.3h-64.1c-4.6-9.5-5.8-23.8 1.1-31.2h61.8c0-62.4 20.6-133.2 75.4-133.2 23.2 0 92.5-5.6 115.4 15.3-136.3-36.5-100.8 260.7-22.9 260.7 38.9 0 38.4-82.2 30.2-96.4-7.8 17.8-18.6 27.4-29.2 27.4-37.5 0-43.3-122.9-5-122.9 18.1 0 31.5 30.6 32.1 44.6-29.7-17.7-28.2 40.2-12.5 41.2 4.4.3 9.2-6.1 7.1-19.6 15.4 4.1 47.7-29.9 47.7-11.5 0 20.5-51.2-24.7-29.3-20.8 19.5 3.4 26.6-10.6 33.8-10.4 20.4.6 11.7 25.3 4.3 27.6 15 6.3 14.2 31.3-4.3 30.4.5 9.1 26.2 23.7 33.1 37.5 18.3 8.2 62.7 17.5 79.9 56.9 27.8 8.2 50.7 37 56.9 60.6 67.9-23.3 48.5 47.4 99.1 47.4 33.9 0 55.9-67.4 38.3-106.5-22.9-50.9-48.3 1.3-78.8-21.4-12.5 9.5-15.8 50.6-10.7 67.3-22.2-27.9-12.5-99.4 14.6-89.4 14.1-33.9 97.1-16.3 90.9 14.5 32.1 24.7-10.8 87.9 6.2 121.6-9.1 25.4-32.1 82.5-58.8 82.5-26.4 0-37.1-36.2-31.3-58.3 13.7 11.2 7.5 72 35.1 72 17 0 42.5-29.3 73.5-107.1 5.3 88.9 41.9 129.1 54.9 171.1-49.2-27.6-40.5-154-40-186.8 20.5-18.4 39.4-22.6 61.3-19.6 8-17.5 45.4-45.8 75.5-48.1 26.8-40.1 79-50.2 96-75.1 9.6 9.6 21.3 17.1 30.7 17.4 40.5 1.6-21.8-80.9-17.7-28.5.4 5.7 9.5 16.2 10.1 8.3 1-14.5-8.6-54.1-25.5-54.1-189.2 0-378 2-566.7 2-4.3 4.3-3.6 14.4.2 18.2 187.3 0 395.3-1 583.1-1 20.9 0 61.3-14.3 48-37.1-3.1-5.4-36.1-13.9-41.2 15.9-4.5 25.9 33.4-43.4 45.6 39.4 5 33.5 15.9 125 54.1 125 13.3 0 91.1.6 105 .6 45 0 67.3-89.3 67.3-132.5h92.6c6.7-9.6 9.8-25.2.3-37.6-29.5-.5-62.9-.2-90.9-.2 0-31-9.7-141.5-50.1-141.5h-110.1c-33.7 0-65.1 41-65.1 112.8 12.5 67 59.6 185.7 153 185.7-54.8-31.6-54.8-96.2-54.8-149.5 0-36.6 25.9-135.7 64.8-135.7 35.8 0 51 87.3 43.8 114.5-5.8-21.6-22.6-39-35.4-39-36.8 0-61.1 139-4.8 139 15 0 24.6-15.1 31-26.2-10.7-38-95.6-143.3-165.2-40.9-38.3 56.4-141.1 173.5-206.4 185.2-5.1 45.2-34.2 71.4-59.1 76 19.3 66.7-40.7 136.2 5.3 200.8-74.9 1.9-72.6 78.1-24.6 97.7 7.9 13.2 13.2 28.9 14.8 40.3 35.6.5 58-5.2 88.2-33.6-10.3-69.8-45.7-96.9-64.6-101.4 33.3 33.8 88.8 152 37.6 168.8-60.6 19.8-42-5.7-52.9-23.3 43.6 24.8 30.3 89.4 36.7 97.1 16.7 20.2 11.8-39.7 55.4-8.9.3.2-16.4-15.1-13.5-53.2 1.5-20.2 4.9-45.4 8.3-10 5.4 56.3-2.2 73.7-19.4 83.4-19.1 5.4 40.8-6.7 18.1 5.6-30 16.3 7.8 22.1 12.5 28-29.4 4.5-35.3-12.7-52-26.3-3.2 18 10.2 24.8 11.9 43.8 24.6-4.1 45.9 10.1 60.7 6.7 41.4-9.4-14.2-64.1-18.7-66 6.6 11.1-.7 23.1-8.6 24 449.5 109.4 951.1-111.1 1118.9-344.3"/></svg>