<svg id="Слой_1" xmlns="http://www.w3.org/2000/svg" viewBox="0 0 4000 1200"><style>.st0{fill-rule:evenodd;clip-rule:evenodd;fill:#e5e8ff}.st1{fill:none;stroke:#4f5474;stroke-width:5.6693;stroke-linecap:round;stroke-linejoin:round;stroke-miterlimit:22.9256}</style><path class="st0" d="M2112.6 592.8c8.7-4.3 67.8-5.4 81.7-2.6 9.5 1.9 11.9 23 19 30.4 27.5 28.8 28.6 86.9 33.5 124.8 0 .1 10.3 13.7 9.8 25.4-.3 7.4 6.8 47.6 6.8 67.5 0 52.7-2.7 74.8 7.6 125.2 1.9 9.5 9 31.1 8.9 30.9-6.7-25.1-36-52.4-36-103.6 0-24.1 2.5-23.7-6.6-45.8-15.6-37.8-13.4-65.1-8.5-105 6.2-50.6-12-67.7-48.5-92.4-11-7.3-66.3-46.4-67.7-54.8zm130.7 483.4c-2.7-.6-2.2 5.5-.3 6.9 27.8 20.3 93.4 30.7 124.6 21 4.1-1.3 9.6-5.8 9-10.3-1.5-12.5-55.1-3.6-61.9-9.7-4.6-4.1-32.6-13.6-38.8-13.4-3.6.1-25.1-5.6-27.3 0-.8 1.7-2.8 6.1-5.3 5.5zm-314.2-66.6c-2.9 35.1 42.2 84.2 69.7 95.3 1.6-.4 5.2-.2 6.3-3.4 1-.1 2.2-6.4-1.5-10-3.3-3.2-7.6-5.5-8.4-6.4-3.8-3.8-7.7-5.7-12.3-10.5-14.4-15.4-13.2-31.2-12.5-51.1.2-4.5-7.9-8.2-11.6-8.9-7-1.3-7.1-3.5-16.1-3.3-4.2 0-10.3-1.6-13.6-1.7zm354.8-585.1c35.8-3.8 29.7 17.5 54.4 27.6 5.5 1 8.5-2.6 14.2-8.9 1.6-1.8 6.3-14 3.2-14.8-2.5-.6-16.5 1.4-16.5-1.6 0-8.3 17.6-10.8 17.6-8.3 0 6.1-.9 9.3 5.5 6.1 3.4-1.7 8-11.8 9-15.7 1.9-7.2 3.1-17-8.2-15.2-3.3.5-21.9 12.4-33.7 14.3-4.6.8-8.9 3.7-15.8 3.4-6.6-.3-23.3 2.4-27 8.8-.3.7-2.1 4.3-2.7 4.3zm-122.7-307.8c21.5-13.7 78-37.1 112.9 10.7 4.6-6.8 3.8-18.7.5-25.9-2-4.4-5.2-6.7-10.6-11.6-4.8-4.3-23.6-11.3-30.2-10.8-3.5.3-14-1.5-17.6.6 0 0-7.4 1.3-8.7 2.1-.1 0-11.1 1.8-14.4 4.1-3.9 2.6-4.7 1.4-9.4 6.1-6.3 6.3-13.5 12-17.7 19.7-.7 1-4.9 5-4.8 5zm109.6 44.7c-7.5 2-6.4-3-19.6 4.3-18.4 10.1-3.9 13-11.9 20.5-8.4 7.8-.5 9.3-8.3 19.9-3.9 5.3-7.4 4.1-12.8 7.7-3.7 2.5-2.9 1.4-6.5 5-5.6 5.6-6.3 6.5-7.2 13.5-.4 2.8-1.5 8.7.5 11.1 0 0 2.7 5 .5 3.6-8.2-5.3-13.3-4.8-17-15.6-2.4-7.1-6.2-9.7-7-19-.3-3.2-3.6-9-3.4-16.3.4-11.8 2.6-9.8 4.9-18.4 1.7-6.2 1.4-6.6 1.9-12.9.4-4.9 2.7-11.5 7.5-13.5 2.4-1 22.3-7.2 21.5-2.5 1.7.5 2.2-.8-.1 3.7-1.6 3.1-5.8 15-.2 15 5.8 0 13.4-4.5 14.4-10 .8-4.8 12.5-7.9 18.8-5.5 2.2 1 25.4 6.1 24 9.4zM2078 335c-4.6.7-9 24.9-10 25.1-3.6 17.2-7.7.3-7.7 26.1 0 3.3-5 5.4-5.1 8.1-1 14.6 2.4 22.2 3.4 28.2 36.2 62.8 110.3 80.6 177.6 85.2 6.8.5-.7 2.2 1.1-15.8.6-5.8-19.1-3.1-28.4-3.8-14.7-1.1-26.2-2.7-46.8-10.2-44.9-16.5-83.1-102.3-81.5-140.4 0-2.3-.5-2.8-2.6-2.5zm21.3 350.4c6 31.9 18.5 33.5 13.4 79.2-3.1 27.6-29.3 60.3-39.1 91.7-15.7 50.3-26 46.4-60.5 83.3-4 4.3-17.2 13.8-18.4 19.3-.1 0-20.2 22.6-10.4 22.6 28.3 0 5.7 8.8 31.2-16.8 2.8-2.8 17.9-15.2 18.4-17.6 5.3-1.1 36.6-36.5 48.3-44.8 5.3-3.8 32.3-29.8 34.1-34.8 2.4-6.9 23.8-27.9 32.2-51.9 4.2-.9 7.1-46.9-1.2-58.5-.1-.1-9.3-24.6-15.4-34.1-3.5-5.7-27-37.5-32.6-37.6z"/><path class="st1" d="M733.3 878.1c448.3-425.8 742.7 244.3 1248.6 242.5-24.4-9.6-194-137.8-30.7-107.7 45.9 8.5-15.9 26.5 51.7 80.1 13.3 10.6-6 20.4-29.7 5.9-18.9-11.5-70.9-48.9-58.8-98.5 1.5-6 11-7.3 30.5-.4 62.2 22.1 37.2-2.4 69-33.9 98.6-97.9 223.7-162.2 59.5-305 9.8 225.9-78.4 164-165.3 316.5 6.3 2.7 20.9 4.9 36.7 2.8 20.2-61.6 93.4-44.5 115.2-130.8 7.2-28.5 47.8-92.7 13.9-126-29.5-28.9-83.5-110.1-11.3-208.7 1.1 26.7-5.8 50.6-14.8 73.7 51.4 17.3 105.4-12.1 176.3 10.9 11.9-26.4 14.7-74.5 12.4-110.7-158.6 22.4-171-200.1-150.3-231.6 27.8 53.9-59.6 131.8-47 256.1 55.7-84.8-13.3-150.3 3.4-224.5 16.8-74.2 44.7-72.2 69.6-101.2 30 30 117.4 155.9 118.7 222.6-4 5.3-99.4-17.6-82.2 15.6 3.3 6.4 10.8 7.3 15.3-19.1 10.2-60 1.6-144.6-51.8-182.2 12.5-25.3 43.3-47.4 45.4-90 1-20.5 27.7-51 52.1-55.1 93.8-15.9 72.3 86.5 104.3 93.1 1.9 9-42.4-3.3-47.3 25.8-9.6 56.7-.2 18.3-40.8 49.7-19.6 15.1-66.1-30.7-40.8-73.3.5-.8-6.4-34 28.2-26.9 5.8 1.2-6.2 10.3-2.9 17.7 2.2 5 9.5 5.7 17.1-7.6 11.8-20.8 49.1 8.1 48.4 2.5-8-63.7-108.8-68.9-110.5 9.1-.5 22.2-8.7 36-6.1 50 2.2 12.2 33.7 42.2 49.6 56.1-21.3 58.6-36.5 165.2 66.1 202.2 4.4-17 6.8-43.7-2.6-61.5-19.2 0-36.1 8.2-35.9 12.5 12.1 5.1 26.8 5.1 41.9 2.3 26.5-33.8 36.1-9.4 83.3-35.6 22.8-12.7 10.1 42.3-22.2 32.9 1-9.4 10.1-12.5 18.2-10.1 0 40-32.2 39.6-62.6 39.6-100.3 0-124 98.3-82.2 161.2 30.8 46.3 33.4 106.3 31.7 126.4 19.2 25.6 15.7 88.4 17.1 146 1.9 79.1 23.4 86.8 30.5 156.4-46.7-16.3-101.8 51-96.7 12.4 9.6-72.9-22.3-87.9-19.4-148.9 8.6-184.5-12.5-183.3-109.3-289.5 57.6 59.4 86.6 32.5 126.6 82.4 25.2 31.4 11.6 87 4.5 122-8.3 40.6 28.9 44.6 33.5 82.2 6.4 51.7-35.5 177.6-10.1 204 18.9 19.7 123.4 6.9 148.3-8.4 16.3-10 8.3-20.2-49.2-18-.9 0-81.8-39.1-77.2-2.9 2.9 22.7 35.1 33 75.1 35.3 288.8 16.5 621.1-431.7 948.5-124.6"/></svg>