<svg id="Слой_1" xmlns="http://www.w3.org/2000/svg" viewBox="0 0 4000 1200"><style>.st0{fill-rule:evenodd;clip-rule:evenodd;fill:#e5e8ff}.st1{fill:none;stroke:#4f5474;stroke-width:5.6693;stroke-linecap:round;stroke-linejoin:round;stroke-miterlimit:22.9256}</style><path class="st0" d="M2228.2 711.7c25.9 0 70.2 96.9 72.8 164.8.4 6.2 4.5 12.9 5.2 14.9 3 8.5 7.7 27.3 19.3 14.8 3.8-4.1 5.8-25.6 4.3-33.4-2.9-15-10.7-44.8-16-52.8-2-3-12-42.8-20.9-55.3-1.4-2-10-23.4-13.6-27.3-7.2-7.7-12.5-29.6-33.5-29.1-11.8.3-4.9-4.3-17.6 3.4zm-257.8-273.2c34.6-17 88.3 9.6 107.7-37.1.1-1.2-2-2.7-8.4-10.2-23.3-27.3-17.5-57.8-18.8-92-.2-6.1 31.1-45.2 24.7-48.1-17.3-8-23.3 30.3-28.7 30.3-.1.4-18.4 36.7-20 44.9 0 .1-11.1 21-11.5 21.5-9.8 13-27.8 50.2-47.5 51.3-18.4 1-27.7-22-32.5-35.5-3.4-9.5 2.6-11.8-8.9-17.5-11.4-5.7-10-22.9-12.7-22.9 5.1 29.5-2.5 50.1-8.6 65.8-19.3 49.9 27.1 68.2 65.2 49.5zm98.6-150.6c2.8 14.6 9.6 29.1 17.5 30 8.1 1 27-17.1 30-26.6 16.4 25 63.8 15.7 102.6 33.3 38.8 17.6 75.3 62.7 106.1 17.2.2-.3-.1 18.8-6.5 32.5-3.9 8.4-15.5 10.3-15.1 11 .3.4-45-5.9-51.3-8.5-12.1-5.1-27.7-7.1-41.2-12.9-8.6-3.7-23.7-6.4-31.2-11.5-1.5-1-16.2-8-19.6-9.8-7.4-3.8-13.3-8.4-21-12-14.7-6.8-2.4-6.5-19.1-.3-6.5 2.4-21.4 20.8-21.8 28.8 0 .8-7.4 19.9-7.6 20-4.9 2.2-8.8-3.7-11.7-8-4.8-6.8-9.6-20.1-9.4-28.4 0-.8-3-16.1-3-20.7 0-8.9-2.4-20.9 1-29.6.7-1.7 1.1-3.2.9-5.2l.4.7zm-151.1-140.7c-14.4 2.9-39.7 35.5-41.3 47.5 6.3-6.3 10.3-3.7 15.9-9.3-1.7 12.3-18.6 35.1-28.5 39.3 11.1 1.5 17.8 1.6 26.5-5.7-6.1 31-49.7 47.2-77.4 49.8 8.9.5 17 2.4 27 2.4 14.5 0 8.5 1.8 24-1.7 5.5-1.2 8.5-1.1 14.2-3.3 10.2-3.9 15.8-8.4 23.9-16 8-7.5 11.1-11.4 13.6-22.2 1.9-7.9 4.3-17.2 2.1-25.7-1.8-7.1-2.6-13.5-3.4-20.7-1.3-11.7-2.8-14.5-2.8-27.6.1-1.2 4.7-2.5 6.2-6.8zm-214 19.7c0 9.6 4 12.9 9.8 14.9-14.7 73.3 1.1 121.3-7.4 161.5 37.5-22.6 98.7 17 159.7-11.3-2.3 5.9-1.3 15.2-1 18.1-.9 7.4-44.5 16.3-53.3 16.3-12.3 0-34.6 5.2-47.6 5.2-9.1 0-20.6 2.6-28.5-.8-.1 0-22.3-1.2-27.1-2.3-17.3-4.1-15.7 6-29.7-13.4-9-12.5.7-31.9.1-46.6-.3-6.7 10.6-63.5 13.4-71.9 5.1-15.2 2.4-56.8 11.6-69.7zm316.1-12.3c4.7 5-4.8 12.2-14.1 9.9-9.4-2.3-7.3 20 6.8 26.9 10.5 5.1 12.8 12.2 15.1 21.5 1 .1 9.5-20.4 13.9-23.6 5-3.7 11.9-18.3 12.8-24.5 3.6-25.9-2.3-77.9-33.4-79.4-20 21.6-25.3 43.9-1.1 69.2zm-8.2 496.3c52.2 69.2-85.2 143.7-48.8 194.4 2.1-.6 3.9-9.6 10.4-15 16-13.3 32.1-23.9 47.8-27.3 14.1-3 27-19.2 30-20.8 6.3-3.3 35.2-32.4 38.6-39.3 4.2-8.6 18.7-24.3 23.1-37.8 1.9-5.7 4.2-11.6 4.2-17.5-12.1 1-67-35.2-93-35.2-2.8 0-12.7-2-12.3-1.5zm-124.8 46c-9.1 10.4-58.8 83.9-68.3 114.5-2.9 9.2-17.2 37.6-16.8 47 .5 11.8-8.9 31.3 9.2 42 27.4 16.2 58.1.3 65.2-32.9-76.7 16.3 3.2-160.2 12.3-169.5l-1.6-1.1zm61.8-93.7c53.2-14.3 73.4-55.7 109.3-67.6-11.3-15.6-20.7-65.6 11.6-90.2-6.4 15.8-13.2 39.4-3.3 63.4 4.4 10.6 8.4 23.7 16.5 31.9 1.5 1.5 15.5 19 13.6 19-18.9 0-28.6-.9-44.9 10-3.2 2.2-15.6 5.3-15 8.3.8 4.3-26.9 16.4-33.2 17.7-8.1 1.7-3.1 5.5-12.6 7.8-4.1 1-39.2 14.9-40.9 12.8-2.6-3.4-2.9-10-1.1-13.1z"/><path class="st1" d="M362.6 1146.2c518.1-615.3 1715.6 135.5 1869.1-221.3 14-32.6-62.4-67.2-90.5-81.8 28.9-6.5 49.8-4.7 63.6-.1 12.9 28.6 17.9 81.2 5.3 82.6-18.9 2-26.6-63.2-99.9-63.2-71.2 0-176.8 107.8-229.9 57.5-7.6-7.2-1.9-34.9 7.5-30.8 9.4 4.1 2.4 18.5-9 30.8-33.5 36.2-79.2 23-79.2-36.8s87.9-207.2 140.1-241.1c-33.2 49.9 9.8 118.4-52.7 206.8-2.3-71.4 52.6-154.5 110.4-192.2 34-22.2 85.3 20.6 114.5 30.7 36.2 12.5 48.6-107-7.3-127.8-41.4-15.5-84.7 42.6-153.9 58.3-6.7-55.8-20.5-99.1-37.7-135.1-15.4-32.2-33.9-18.2-45.5-59-16.4-57.7 60.8-129.5 8.5-136.4-30-3.9-47.1 18.6-74.8 16.2-31.8-2.7-51.8-1.3-78.3 9.4 16-25.5-8.5-113.8 14.9-147.7 19.4 1.9 37.7-7 46-18.1 8.4-11.4 8.3-26.2 4.1-28.2-5.1-2.4-6.4 12.4-14.7 15.8-19.1 7.9-39.8-16.4-27.4 4.4 9.6 16.2 17 10.3 21.6.1 11.6-25.7-43-71.5-64.3 31.7-2.2 10.9-8.7 57.4-16.8 104.8-7.9 46.4-29.1 95.3 28.6 96.3 42.3.8 167.8 7.1 200.8-74.6-3 38.6 10.2 55.2 30.3 55.2 40.7 0 106.2-84.4 86.4-94.8-23-12-13.5-43 5.5-62.8 35.2-36.7 19.1-108.7-17.6-110.7-6.5 17.1-16.6 25-37.3 29.9-2-18.4-18-14.8-24.7.2-5.2 11.7-2.6 23.7-2.7 26.8-33.7-34.8 8.6-87.4 53.7-87.4 45.8 0 86.1 69.7 48.4 134.3-18.6 31.9-14.9 79.4-55.1 49.3-22.7-16.9-52.8-.7-59.4-52.3-15-2.3-24.9-29.6-22.3-43.3-32.7 19.4 31.7 77.1-32.9 118.3-25.5 16.3-61.9 15.9-101.7.8 108.6-22.4 49.4-132.6 143.7-132.6 52.9 69 29.8 169.7 0 165.2-2.6-14.9 27-36 42.4-40.3 5.7 43.9-77.4 118.9-15.2 118.9 94.2 0 72.2-124.1 122.5-124.1-11.6 16.3-25.1 114.7 9.8 134.1 6.5-24.1 21.1-45.2 41.1-57.8 24.5 26.2 110.5 52.5 156.9 59.3 27.9 4.1 35.9-5.8 35.9-37.7 0-62.4 15.7-118.2-23.5-175.5-45.3-66.3-103.9-10.3-71.5 13.4 3.7 2.7 3.4-14.6 20.2-12.5 14.9 1.9 19.9-9.5 11.5-14.5-9.3-5.7-25.4 2.2-12.4 14 0 16.7 17.1 23.4 30.5 15.7 35.8 46.8-3.6 96-3.2 142.8-24.6-38.8-94-30.5-130.9-64.4-10.1-9.3-23.4-13.4-36.5-13.5-77-.6-62.6 124.4-31.6 147 26.4 19.3-15 40.9-16 81.8-1.6 60.1 93.2 97.2 43.1 183.9 64.3 38.8-103.1 169-141.8 183.5 36.4-64.2 154.5-56.9 187.8-74 33.3-17 45.1-45.2 73.3-59.6 27.1-13.8 42.4 2 54.2 20.5 11.3 17.7 83.3 187.2 38 175.9-16.7-4.2-1.1-29.5-24.3-46.5-9.4-6.9-31.9-12.3-53.1-21.1-54.7-22.7-1.1-55.4-38.3-79.9 4.6-10.7 19-24.3 31.4-32.5 85.6 56.2-2.8 401.3 322.5 266.6 276.2-114.4 693.7-528.7 1084.4-380.7"/></svg>